<svg width="208" height="31" viewBox="0 0 208 31" fill="none" xmlns="http://www.w3.org/2000/svg">
<path d="M50.9723 9.53704H55.3784V11.4197H55.4232C56.2037 9.79018 57.7436 9.35248 60.1062 9.35248C62.8379 9.35248 66.6481 9.46849 66.6481 14.518V21.2445H62.2394V14.518C62.2394 13.371 61.3218 12.7962 59.3943 12.7962H58.3843C56.5017 12.7962 55.3757 13.6689 55.3757 15.3433V21.2419H50.9696V9.53704H50.9723Z" fill="#4F4C4E"/>
<path d="M68.6732 14.7474C68.6732 10.3175 70.875 9.35248 74.0892 9.35248H77.1664C81.8494 9.35248 83.7796 10.3386 83.7796 14.402V16.3769H73.082V17.0889C73.082 18.3282 73.9548 18.6736 75.79 18.6736H77.1453C79.5316 18.6736 79.6477 18.0302 79.6477 17.342H83.7796V17.8457C83.7796 20.7831 81.1638 21.4265 77.9707 21.4265H74.6641C71.7504 21.4265 68.6732 20.8754 68.6732 15.8707V14.7474ZM79.5079 13.7612C79.5079 12.3611 78.8645 12.1079 76.2936 12.1079C73.4248 12.1079 73.0793 12.3611 73.0793 13.7612H79.5079Z" fill="#4F4C4E"/>
<path d="M84.4229 9.53705H89.243L91.9062 18.0751H91.951L95.0282 9.53705H99.0678L102.145 18.0751H102.19L104.853 9.53705H109.673L105.175 21.2445H99.2972L97.0717 14.9082H97.0269L94.8014 21.2445H88.924L84.4229 9.53705Z" fill="#4F4C4E"/>
<path d="M111.123 4.62469H115.532V21.2446H111.123V4.62469Z" fill="#4F4C4E"/>
<path d="M117.62 17.1337C117.62 13.9432 119.825 13.7586 124.094 13.7586C126.504 13.7586 127.835 13.8272 128.685 14.6999V13.6663C128.685 12.5193 128.339 12.1053 126.617 12.1053H124.023C122.736 12.1053 122.369 12.2213 122.325 13.0467H118.056C118.056 9.87984 119.617 9.34985 123.334 9.34985H128.455C131.485 9.34985 133.091 10.7948 133.091 13.5503V21.2393H128.914V19.9077C127.698 21.1707 127.24 21.4238 125.035 21.4238H122.029C119.342 21.4476 117.62 20.849 117.62 18.0962V17.1337ZM125.47 18.671C128.5 18.671 128.777 18.2122 128.777 17.4317C128.777 16.5589 128.524 16.2372 126.09 16.2372H124.139C122.28 16.2372 121.889 16.6512 121.889 17.6136C121.889 18.3704 122.488 18.6684 124.21 18.6684H125.47V18.671Z" fill="#4F4C4E"/>
<path d="M135.458 4.62469H139.867V11.694H139.912C140.186 9.85616 142.048 9.35252 143.859 9.35252H145.167C150.744 9.35252 151.435 11.3512 151.435 14.3335V16.4455C151.435 19.4304 150.747 21.4265 145.167 21.4265H143.883C141.22 21.4265 140.118 20.5326 139.635 19.085H139.59V21.2419H135.458V4.62469ZM139.59 15.963C139.59 17.7297 140.508 18.1199 142.254 18.1199H144.848C146.96 18.1199 147.166 17.3869 147.166 16.0764V14.7C147.166 13.3921 146.96 12.6564 144.848 12.6564H142.254C140.508 12.6564 139.59 13.0467 139.59 14.8134V15.963Z" fill="#4F4C4E"/>
<path d="M153.159 14.7474C153.159 10.3175 155.364 9.35248 158.578 9.35248H161.655C166.338 9.35248 168.266 10.3386 168.266 14.402V16.3769H157.571V17.0889C157.571 18.3282 158.444 18.6736 160.279 18.6736H161.632C164.018 18.6736 164.134 18.0302 164.134 17.342H168.266V17.8457C168.266 20.7831 165.65 21.4265 162.46 21.4265H159.153C156.237 21.4265 153.162 20.8754 153.162 15.8707V14.7474H153.159ZM163.994 13.7612C163.994 12.3611 163.351 12.1079 160.78 12.1079C157.911 12.1079 157.566 12.3611 157.566 13.7612H163.994Z" fill="#4F4C4E"/>
<path d="M170.539 4.62469H174.947V21.2446H170.539V4.62469Z" fill="#4F4C4E"/>
<path d="M178.826 12.7038H176.622V9.53702H178.826V6.78156H183.232V9.53702H190.072V12.7038H183.232V17.2022C183.232 18.075 183.876 18.2596 184.93 18.2596C186.354 18.2596 186.745 17.9379 186.745 16.8595V16.079H190.6V17.5028C190.6 19.7283 189.131 21.4264 185.619 21.4264H183.873C181.165 21.4264 178.824 20.5774 178.824 17.342V12.7038H178.826Z" fill="#4F4C4E"/>
<path d="M191.246 9.53705H196.042L199.623 17.8008L203.204 9.53705H208L202.376 21.2445H196.867L191.246 9.53705Z" fill="#4F4C4E"/>
<path d="M7.68896 0.287109V30.1491C3.44105 30.1491 0 26.7054 0 22.4601V7.9787C0 3.72815 3.44368 0.287109 7.68896 0.287109Z" fill="url(#paint0_linear)"/>
<path d="M15.5783 7.15865L21.6324 12.3321V0.287109H15.5783V7.15865Z" fill="#1BB954"/>
<path d="M0.0349426 7.15865H21.6331V0.287109H6.90649C3.11211 0.287109 0.0349426 3.36427 0.0349426 7.15865Z" fill="#1BB954"/>
<path d="M21.0286 23.2749L14.9745 18.1015V30.1465H21.0286V23.2749Z" fill="#1BB954"/>
<path d="M36.5727 23.2749H14.9745V30.1464H29.7011C33.4981 30.1464 36.5727 27.0693 36.5727 23.2749Z" fill="#1BB954"/>
<path d="M36.6069 15.9894V7.97606C36.6069 3.72815 33.1633 0.287109 28.918 0.287109V15.9894H36.6069Z" fill="url(#paint1_linear)"/>
<defs>
<linearGradient id="paint0_linear" x1="3.8448" y1="30.1471" x2="3.8448" y2="0.286451" gradientUnits="userSpaceOnUse">
<stop stop-color="#1BB954"/>
<stop offset="0.2023" stop-color="#1BB954"/>
<stop offset="0.4947" stop-color="#56CA01"/>
<stop offset="0.8269" stop-color="#38B100"/>
</linearGradient>
<linearGradient id="paint1_linear" x1="32.7627" y1="0.28645" x2="32.7627" y2="15.9892" gradientUnits="userSpaceOnUse">
<stop stop-color="#1BB954"/>
<stop offset="0.2446" stop-color="#1BB954"/>
<stop offset="0.5982" stop-color="#56CA01"/>
<stop offset="1" stop-color="#1BB954"/>
</linearGradient>
</defs>
</svg>
