<svg width="68" height="68" viewBox="0 0 68 68" fill="none" xmlns="http://www.w3.org/2000/svg">
<path opacity="0.4" d="M67.3332 34.0164C67.3332 52.3795 52.3718 67.3337 33.9998 67.3337C15.6279 67.3337 0.666504 52.3795 0.666504 34.0164C0.666504 15.6212 15.6279 0.666992 33.9998 0.666992C52.3718 0.666992 67.3332 15.6212 67.3332 34.0164Z" fill="#F82E2E"/>
<path d="M47.3333 34.0165C47.3333 34.859 47.0682 35.7047 46.5379 36.3819C46.4384 36.5147 45.9744 37.0623 45.6099 37.4187L45.411 37.6131C42.6269 40.5649 35.6998 45.004 32.1866 46.4264C32.1866 46.4588 30.0985 47.3045 29.1042 47.3337H28.9716C27.447 47.3337 26.0218 46.4945 25.2926 45.1336C24.8949 44.3851 24.5303 42.2142 24.4972 42.185C24.1989 40.2377 24 37.2567 24 33.9841C24 30.5528 24.1989 27.439 24.5634 25.5273C24.5634 25.4949 24.928 23.7452 25.16 23.1619C25.5246 22.3227 26.1875 21.6066 27.0161 21.153C27.679 20.8322 28.375 20.667 29.1042 20.667C29.8665 20.7026 31.2917 21.1854 31.8551 21.4122C35.5672 22.8379 42.66 27.5038 45.3778 30.3551C45.8419 30.8088 46.339 31.3628 46.4716 31.4892C47.035 32.202 47.3333 33.0769 47.3333 34.0165Z" fill="#F82E2E"/>
</svg>
